<svg width="91" height="57" viewBox="0 0 91 57" fill="none" xmlns="http://www.w3.org/2000/svg">
<path d="M16.12 38.2C12.9467 38.2 10.1867 37.6267 7.84 36.48C5.49333 35.3067 3.69333 33.6533 2.44 31.52C1.18667 29.3867 0.56 26.9067 0.56 24.08C0.56 20.16 1.29333 16.68 2.76 13.64C4.25333 10.6 6.26667 8.25333 8.8 6.6C11.3333 4.92 14.1467 4.08 17.24 4.08C20.12 4.08 22.3067 4.82666 23.8 6.32C25.2933 7.78666 26.04 9.73333 26.04 12.16C26.04 13.7867 25.7467 15.0933 25.16 16.08C24.6 17.0667 23.7867 17.56 22.72 17.56C21.9733 17.56 21.3867 17.3867 20.96 17.04C20.5333 16.6933 20.32 16.1867 20.32 15.52C20.32 15.28 20.3733 14.84 20.48 14.2C20.64 13.4 20.72 12.76 20.72 12.28C20.72 9.85333 19.4267 8.64 16.84 8.64C15.08 8.64 13.4 9.21333 11.8 10.36C10.2 11.5067 8.90667 13.2 7.92 15.44C6.93333 17.6533 6.44 20.2933 6.44 23.36C6.44 26.56 7.33333 29.04 9.12 30.8C10.9067 32.5333 13.5467 33.4 17.04 33.4C18.7733 33.4 20.52 33.1867 22.28 32.76C24.0667 32.3067 26.04 31.6267 28.2 30.72C28.6 30.56 28.9333 30.48 29.2 30.48C29.6267 30.48 29.9467 30.64 30.16 30.96C30.3733 31.28 30.48 31.6933 30.48 32.2C30.48 33.8267 29.6 35.0267 27.84 35.8C25.9467 36.6267 23.9733 37.24 21.92 37.64C19.8933 38.0133 17.96 38.2 16.12 38.2ZM32.2619 38.2C30.6085 38.2 29.2885 37.6 28.3019 36.4C27.3152 35.2 26.8219 33.6267 26.8219 31.68C26.8219 29.5467 27.3152 27.5333 28.3019 25.64C29.2885 23.72 30.5952 22.1867 32.2219 21.04C33.8752 19.8667 35.6219 19.28 37.4619 19.28C38.0485 19.28 38.4352 19.4 38.6219 19.64C38.8352 19.8533 39.0085 20.2533 39.1419 20.84C39.7019 20.7333 40.2885 20.68 40.9019 20.68C42.2085 20.68 42.8619 21.1467 42.8619 22.08C42.8619 22.64 42.6619 23.9733 42.2619 26.08C41.6485 29.1467 41.3419 31.28 41.3419 32.48C41.3419 32.88 41.4352 33.2 41.6219 33.44C41.8352 33.68 42.1019 33.8 42.4219 33.8C42.9285 33.8 43.5419 33.48 44.2619 32.84C44.9819 32.1733 45.9552 31.1067 47.1819 29.64C47.5019 29.2667 47.8619 29.08 48.2619 29.08C48.6085 29.08 48.8752 29.24 49.0619 29.56C49.2752 29.88 49.3819 30.32 49.3819 30.88C49.3819 31.9467 49.1285 32.7733 48.6219 33.36C47.5285 34.72 46.3685 35.8667 45.1419 36.8C43.9152 37.7333 42.7285 38.2 41.5819 38.2C40.7019 38.2 39.8885 37.9067 39.1419 37.32C38.4219 36.7067 37.8752 35.88 37.5019 34.84C36.1152 37.08 34.3685 38.2 32.2619 38.2ZM33.7019 34.16C34.2885 34.16 34.8485 33.8133 35.3819 33.12C35.9152 32.4267 36.3019 31.5067 36.5419 30.36L38.0219 23C36.9019 23.0267 35.8619 23.4533 34.9019 24.28C33.9685 25.08 33.2219 26.1467 32.6619 27.48C32.1019 28.8133 31.8219 30.2267 31.8219 31.72C31.8219 32.5467 31.9819 33.16 32.3019 33.56C32.6485 33.96 33.1152 34.16 33.7019 34.16ZM63.9709 29.08C64.3176 29.08 64.5843 29.24 64.7709 29.56C64.9843 29.88 65.0909 30.32 65.0909 30.88C65.0909 31.9467 64.8376 32.7733 64.3309 33.36C63.1843 34.7733 61.9309 35.9333 60.5709 36.84C59.2109 37.7467 57.6509 38.2 55.8909 38.2C50.4509 38.2 47.7309 34.3733 47.7309 26.72C47.7309 25.5467 47.7709 24.36 47.8509 23.16H46.2909C45.4909 23.16 44.9443 23.0133 44.6509 22.72C44.3843 22.4267 44.2509 21.96 44.2509 21.32C44.2509 19.8267 44.8509 19.08 46.0509 19.08H48.3309C48.7843 16.1467 49.4776 13.4667 50.4109 11.04C51.3443 8.61333 52.4643 6.68 53.7709 5.24C55.1043 3.8 56.5309 3.08 58.0509 3.08C59.1709 3.08 60.0509 3.57333 60.6909 4.56C61.3309 5.54667 61.6509 6.78667 61.6509 8.28C61.6509 12.4133 59.9176 16.0133 56.4509 19.08H60.9309C61.3576 19.08 61.6643 19.1733 61.8509 19.36C62.0376 19.5467 62.1309 19.8933 62.1309 20.4C62.1309 22.24 60.6243 23.16 57.6109 23.16H52.7309C52.6776 24.4933 52.6509 25.5333 52.6509 26.28C52.6509 29.0533 52.9709 31 53.6109 32.12C54.2776 33.24 55.3176 33.8 56.7309 33.8C57.8776 33.8 58.8909 33.4533 59.7709 32.76C60.6509 32.0667 61.6909 31.0267 62.8909 29.64C63.2109 29.2667 63.5709 29.08 63.9709 29.08ZM56.9709 6.92C56.5709 6.92 56.1176 7.42667 55.6109 8.44C55.1309 9.42667 54.6643 10.8133 54.2109 12.6C53.7843 14.36 53.4243 16.32 53.1309 18.48C54.7043 17.12 55.8776 15.6 56.6509 13.92C57.4509 12.2133 57.8509 10.6667 57.8509 9.28C57.8509 7.70667 57.5576 6.92 56.9709 6.92ZM76.9941 29.08C77.3407 29.08 77.6074 29.24 77.7941 29.56C78.0074 29.88 78.1141 30.32 78.1141 30.88C78.1141 31.9467 77.8607 32.7733 77.3541 33.36C76.2074 34.7733 74.9541 35.9333 73.5941 36.84C72.2607 37.7467 70.7407 38.2 69.0341 38.2C66.6874 38.2 64.9407 37.1333 63.7941 35C62.6741 32.8667 62.1141 30.1067 62.1141 26.72C62.1141 23.4667 62.5274 19.76 63.3541 15.6C64.2074 11.44 65.4474 7.86667 67.0741 4.88C68.7274 1.89333 70.6874 0.399998 72.9541 0.399998C74.2341 0.399998 75.2341 0.999998 75.9541 2.2C76.7007 3.37333 77.0741 5.06667 77.0741 7.28C77.0741 10.4533 76.1941 14.1333 74.4341 18.32C72.6741 22.5067 70.2874 26.6533 67.2741 30.76C67.4607 31.8533 67.7674 32.64 68.1941 33.12C68.6207 33.5733 69.1807 33.8 69.8741 33.8C70.9674 33.8 71.9274 33.4933 72.7541 32.88C73.5807 32.24 74.6341 31.16 75.9141 29.64C76.2341 29.2667 76.5941 29.08 76.9941 29.08ZM72.0741 4.36C71.4607 4.36 70.7674 5.46667 69.9941 7.68C69.2207 9.89333 68.5407 12.64 67.9541 15.92C67.3674 19.2 67.0474 22.3467 66.9941 25.36C68.8874 22.24 70.3941 19.12 71.5141 16C72.6341 12.8533 73.1941 9.98666 73.1941 7.4C73.1941 5.37333 72.8207 4.36 72.0741 4.36ZM88.8809 19.36C89.4943 19.36 89.9209 19.44 90.1609 19.6C90.4009 19.76 90.5209 20.0267 90.5209 20.4C90.5209 21.04 90.1743 23.32 89.4809 27.24C88.8676 31 88.5076 33.2267 88.4009 33.92C87.4143 40.7733 86.0543 46.2 84.3209 50.2C82.5876 54.2 80.2809 56.2 77.4009 56.2C76.0409 56.2 74.9343 55.7733 74.0809 54.92C73.2276 54.0933 72.8009 53 72.8009 51.64C72.8009 50.3867 73.0809 49.1067 73.6409 47.8C74.2276 46.4933 75.2943 44.9867 76.8409 43.28C78.4143 41.6 80.6276 39.6667 83.4809 37.48L83.6009 36.56C83.7876 35.5733 84.0009 34.16 84.2409 32.32C83.7076 34.24 82.9609 35.7067 82.0009 36.72C81.0409 37.7067 80.0276 38.2 78.9609 38.2C77.7609 38.2 76.7743 37.6533 76.0009 36.56C75.2543 35.44 74.8809 34.0533 74.8809 32.4C74.8809 30.4 75.0143 28.5733 75.2809 26.92C75.5476 25.24 75.9876 23.4667 76.6009 21.6C76.8676 20.8 77.2409 20.2267 77.7209 19.88C78.2009 19.5333 78.9609 19.36 80.0009 19.36C80.5876 19.36 80.9876 19.4533 81.2009 19.64C81.4409 19.8267 81.5609 20.1067 81.5609 20.48C81.5609 20.6933 81.4143 21.4133 81.1209 22.64C80.8543 23.6267 80.6409 24.52 80.4809 25.32C80.2676 26.4133 80.0809 27.4667 79.9209 28.48C79.7609 29.4667 79.6809 30.28 79.6809 30.92C79.6809 31.9333 79.9609 32.44 80.5209 32.44C80.9209 32.44 81.4143 32.04 82.0009 31.24C82.6143 30.44 83.2543 29.2267 83.9209 27.6C84.6143 25.9733 85.2809 23.9733 85.9209 21.6C86.1343 20.8 86.4543 20.2267 86.8809 19.88C87.3343 19.5333 88.0009 19.36 88.8809 19.36ZM77.8409 52.32C78.5076 52.32 79.2543 51.5467 80.0809 50C80.9076 48.4533 81.7343 45.88 82.5609 42.28C80.5076 44.0133 79.0143 45.5867 78.0809 47C77.1743 48.44 76.7209 49.6933 76.7209 50.76C76.7209 51.2133 76.8009 51.5867 76.9609 51.88C77.1476 52.1733 77.4409 52.32 77.8409 52.32Z" fill="#F8F272"/>
</svg>
