<svg width="17" height="17" viewBox="0 0 17 17" fill="none" xmlns="http://www.w3.org/2000/svg">
<path d="M10.8446 6.15557C12.8283 8.14141 12.8011 11.3252 10.8565 13.2806C10.8529 13.2846 10.8485 13.2889 10.8446 13.2929L8.61331 15.5241C6.64536 17.4921 3.44361 17.4918 1.47596 15.5241C-0.491987 13.5565 -0.491987 10.3544 1.47596 8.38681L2.708 7.15478C3.03472 6.82806 3.59738 7.04521 3.61424 7.50693C3.63576 8.09536 3.74128 8.68653 3.93598 9.25743C4.00192 9.45074 3.95481 9.66456 3.81037 9.809L3.37585 10.2435C2.44529 11.1741 2.41611 12.6893 3.3375 13.6289C4.26798 14.5778 5.79738 14.5835 6.73501 13.6458L8.96626 11.4149C9.90229 10.4789 9.89837 8.96597 8.96626 8.03386C8.84337 7.91121 8.71959 7.81592 8.6229 7.74935C8.5545 7.70237 8.49802 7.64007 8.45798 7.5674C8.41793 7.49473 8.39542 7.4137 8.39224 7.33079C8.37909 6.97993 8.5034 6.61838 8.78065 6.34114L9.47971 5.64205C9.66302 5.45873 9.9506 5.43622 10.1632 5.58457C10.4066 5.75456 10.6346 5.94562 10.8446 6.15557ZM15.524 1.47586C13.5564 -0.49182 10.3546 -0.492086 8.3867 1.47586L6.15545 3.70711C6.15146 3.71109 6.14714 3.71541 6.14349 3.71939C4.19892 5.67478 4.17166 8.85859 6.15545 10.8444C6.36538 11.0544 6.59338 11.2454 6.83681 11.4154C7.04937 11.5637 7.33698 11.5412 7.52026 11.3579L8.21932 10.6588C8.49657 10.3816 8.62088 10.02 8.60773 9.66918C8.60455 9.58627 8.58204 9.50524 8.54199 9.43257C8.50195 9.3599 8.44547 9.29759 8.37707 9.25062C8.28038 9.18405 8.1566 9.08876 8.03371 8.9661C7.1016 8.03399 7.09768 6.52106 8.03371 5.58504L10.265 3.35412C11.2026 2.4165 12.732 2.42215 13.6625 3.37106C14.5839 4.3107 14.5547 5.82589 13.6241 6.75644L13.1896 7.19097C13.0452 7.3354 12.998 7.54923 13.064 7.74254C13.2587 8.31343 13.3642 8.90461 13.3857 9.49304C13.4026 9.95476 13.9653 10.1719 14.292 9.84519L15.524 8.61316C17.492 6.64558 17.492 3.44347 15.524 1.47586Z" fill="#AEAEAE"/>
</svg>
